<?xml version="1.0" encoding="utf-8"?>
<!-- Generator: Adobe Illustrator 27.5.0, SVG Export Plug-In . SVG Version: 6.00 Build 0)  -->
<svg version="1.1" xmlns="http://www.w3.org/2000/svg" xmlns:xlink="http://www.w3.org/1999/xlink" x="0px" y="0px"
	 viewBox="0 0 750 500" style="enable-background:new 0 0 750 500;" xml:space="preserve">
<g id="BACKGROUND">
	<rect style="fill:#CFC2EF;" width="750" height="500"/>
</g>
<g id="OBJECTS">
	<g>
		<path style="fill:#B6A9E0;" d="M111.941,167.899c0,0-41.274,7.573-34.608,55.17C84,270.667,113.333,367.022,186,323.177
			s90.283,24.075,139.443,47.742c49.16,23.667,56.875,24.198,121.05-18.252c64.174-42.45,67.805-1.324,127.089,8.009
			c59.284,9.333,101.085,11.57,106.418-38.22c5.333-49.79-47.126-84.484-49.752-131.326C627.621,144.288,644.756,22,545.711,80.667
			c-99.044,58.667-136.157,65.356-172.934,30.345C336,76,241.621,65.967,226.811,109.983S136.548,95.132,111.941,167.899z"/>
		<g>
			<g>
				<path style="fill:#4E2F7F;" d="M503.669,387.64c-0.464-0.302-1.083-0.168-1.383,0.295c-5.301,8.174-7.869,15.305-9.087,20.743
					c-2.473-9.704-8.324-18.915-8.625-19.385c-0.298-0.465-0.917-0.602-1.381-0.302c-0.465,0.298-0.601,0.917-0.302,1.382
					c0.087,0.135,8.649,13.609,9.35,24.686c-0.201,2.878,0.028,4.565,0.056,4.755c0.073,0.496,0.5,0.852,0.988,0.852
					c0.048,0,0.097-0.003,0.146-0.011c0.546-0.079,0.924-0.587,0.846-1.133c-0.019-0.127-1.701-12.936,9.689-30.5
					C504.264,388.56,504.132,387.94,503.669,387.64z"/>
				<g>
					<path style="fill:#9278D1;" d="M503.103,376.016c-9.877-8.727-13.648-5.958-13.336-14.932
						c0.312-8.973-4.761-15.915-9.673-17.205c-4.912-1.29-10.663-1.059-12.94-10.942c-2.277-9.883-11.165-10.948-15.289-8.885
						c-4.124,2.063-8.603,9.814-2.06,17.563c6.543,7.749,2.909,12.212,0.995,16.917c-1.914,4.705,0.599,12.927,7.967,18.059
						c7.367,5.132,2.891,6.49,3.951,19.627s28.483,6.473,28.483,6.473S512.98,384.743,503.103,376.016z"/>
					<polygon style="fill:#4E2F7F;" points="489.186,370.84 480.615,381.528 475.467,371.236 471.794,363.895 477.307,350.292 
						470.941,362.188 465.179,350.67 465.179,350.67 453.408,327.139 464.151,349.935 464.151,349.935 454.054,344.323 
						464.56,350.805 474.261,371.392 456.404,366.437 475.542,374.109 485.03,394.786 468.71,391.038 486.591,397.558 
						489.428,403.578 491.201,402.691 481.682,383.661 481.682,383.661 					"/>
				</g>
				<g>
					<path style="fill:#AC8FE5;" d="M485.146,371.334c9.877-8.727,13.648-5.959,13.336-14.932
						c-0.312-8.973,4.761-15.915,9.673-17.205c4.912-1.29,10.663-1.059,12.94-10.942c2.277-9.883,11.165-10.948,15.289-8.885
						c4.124,2.063,8.602,9.814,2.06,17.563c-6.543,7.749-2.909,12.212-0.995,16.917c1.914,4.705-0.599,12.926-7.967,18.059
						c-7.367,5.132-2.891,6.49-3.951,19.627c-1.06,13.137-28.484,6.473-28.484,6.473S475.269,380.06,485.146,371.334z"/>
					<polygon style="fill:#4E2F7F;" points="499.063,366.157 507.634,376.845 512.783,366.553 516.455,359.212 510.942,345.609 
						517.308,357.505 523.07,345.987 523.07,345.987 534.841,322.456 524.099,345.253 524.099,345.253 534.195,339.64 
						523.689,346.122 513.988,366.709 531.845,361.754 512.707,369.427 503.219,390.104 519.539,386.356 501.658,392.875 
						498.821,398.895 497.048,398.009 506.567,378.978 506.567,378.978 					"/>
				</g>
			</g>
			<g>
				<path style="fill:#FFFFFF;" d="M515.011,435.066c0-5.128-2.86-9.712-7.356-12.796c-0.057-2.228-1.872-4.019-4.114-4.019h-18.834
					c-2.242,0-4.057,1.791-4.114,4.02c-4.496,3.084-7.355,7.668-7.355,12.796s2.86,9.712,7.355,12.796
					c0.057,2.228,1.872,4.02,4.114,4.02h18.834c2.242,0,4.057-1.791,4.114-4.019C512.151,444.778,515.011,440.194,515.011,435.066z"
					/>
				<g>
					<path style="fill:#9875BC;" d="M480.593,422.77h27.063c0.276,0,0.5-0.224,0.5-0.5c0-0.276-0.224-0.5-0.5-0.5h-27.063
						c-0.276,0-0.5,0.224-0.5,0.5C480.093,422.546,480.317,422.77,480.593,422.77z"/>
					<path style="fill:#9875BC;" d="M507.656,447.362h-27.063c-0.276,0-0.5,0.224-0.5,0.5s0.224,0.5,0.5,0.5h27.063
						c0.276,0,0.5-0.224,0.5-0.5S507.932,447.362,507.656,447.362z"/>
				</g>
			</g>
		</g>
		<g>
			<g>
				<rect x="111.941" y="206.529" style="fill:#EFEAF4;" width="129.836" height="47.997"/>
				<rect x="116.567" y="212.682" style="fill:#D9D1F2;" width="81.076" height="2.799"/>
			</g>
			<g>
				<path style="fill:#EFEAF4;" d="M131.31,148.853c0-1.73,0-3.461,0-5.192c0.071-0.623,0.143-1.245,0.212-1.868
					c1.06-9.533,4.701-17.942,11.127-25.072c6.822-7.57,15.274-12.296,25.331-14.076c1.667-0.295,3.356-0.463,5.035-0.689
					c1.73,0,3.461,0,5.191,0c0.222,0.049,0.443,0.127,0.668,0.143c6.93,0.49,13.413,2.47,19.328,6.096
					c11.476,7.034,18.541,17.173,21.019,30.44c0.31,1.66,0.464,3.35,0.69,5.026c0,1.731,0,3.461,0,5.192
					c-0.071,0.622-0.143,1.245-0.212,1.868c-1.06,9.533-4.701,17.942-11.127,25.072c-6.822,7.57-15.274,12.296-25.331,14.076
					c-1.667,0.295-3.356,0.463-5.035,0.689c-1.73,0-3.461,0-5.191,0c-0.223-0.049-0.443-0.127-0.668-0.143
					c-6.93-0.49-13.413-2.47-19.328-6.096c-11.476-7.034-18.541-17.173-21.019-30.44C131.69,152.219,131.536,150.529,131.31,148.853
					z M213.031,146.269c0.016-20.632-16.72-37.388-37.386-37.432c-20.607-0.044-37.381,16.691-37.453,37.365
					c-0.072,20.623,16.772,37.488,37.43,37.475C196.272,183.665,213.016,166.922,213.031,146.269z"/>
				<path style="fill:#EFEAF4;" d="M172.166,136.225c0.001-3.374-0.028-6.748,0.01-10.121c0.029-2.6,2.394-4.251,4.7-3.343
					c1.401,0.552,2.177,1.815,2.178,3.598c0.005,5.71,0.033,11.42-0.027,17.129c-0.011,1.02,0.324,1.6,1.118,2.182
					c3.696,2.709,7.342,5.487,11.012,8.233c1.276,0.955,1.88,2.189,1.483,3.764c-0.594,2.358-3.267,3.333-5.298,1.931
					c-1.28-0.883-2.501-1.854-3.746-2.787c-3.16-2.369-6.296-4.771-9.489-7.093c-1.361-0.99-1.983-2.214-1.957-3.889
					C172.201,142.628,172.166,139.426,172.166,136.225z"/>
			</g>
			<g>
				<g>
					<rect x="255.347" y="101.956" style="fill:#FFFFFF;" width="122.139" height="110.725"/>
					<path style="fill:#AC8FE5;" d="M372.777,109.983h-112.73c-0.284,0-0.514,0.23-0.514,0.514c0,0.284,0.23,0.514,0.514,0.514
						h52.596v93.502c0,0.284,0.23,0.514,0.514,0.514c0.284,0,0.514-0.23,0.514-0.514v-93.502h59.106c0.284,0,0.514-0.23,0.514-0.514
						C373.291,110.213,373.061,109.983,372.777,109.983z"/>
				</g>
				<g>
					<g>
						<rect x="267.626" y="130.714" style="fill:#D9D1F2;" width="15.112" height="24.413"/>
						<path style="fill:#AC8FE5;" d="M267.626,130.714h15.112c0,0,1.418,22.818-4.983,22.818H262.36
							C262.36,153.531,267.626,148.235,267.626,130.714z"/>
					</g>
					<g>
						<rect x="267.626" y="159.953" style="fill:#D9D1F2;" width="15.112" height="24.413"/>
						<path style="fill:#AC8FE5;" d="M267.626,159.953h15.112c0,0,1.418,22.818-4.983,22.818H262.36
							C262.36,182.771,267.626,177.474,267.626,159.953z"/>
					</g>
					<g>
						<rect x="325.443" y="159.953" style="fill:#D9D1F2;" width="15.112" height="24.413"/>
						<path style="fill:#AC8FE5;" d="M325.443,159.953h15.112c0,0,1.418,22.818-4.983,22.818h-15.395
							C320.176,182.771,325.443,177.474,325.443,159.953z"/>
					</g>
				</g>
			</g>
			<g>
				<path style="fill:#FFFFFF;" d="M395.581,310.217h249.542c5.339,0,9.667-4.328,9.667-9.667V112.509
					c0-5.339-4.328-9.667-9.667-9.667H395.581c-5.339,0-9.667,4.328-9.667,9.667V300.55
					C385.914,305.889,390.242,310.217,395.581,310.217z"/>
				<g>
					<rect x="402.559" y="202.598" style="fill:#D9D1F2;" width="130.835" height="3.628"/>
					<rect x="403.096" y="130.25" style="fill:#D9D1F2;" width="17.265" height="66.679"/>
					<rect x="425.781" y="139.502" style="fill:#D9D1F2;" width="17.265" height="57.428"/>
					<rect x="449.081" y="150.466" style="fill:#D9D1F2;" width="17.265" height="46.463"/>
					<rect x="473.944" y="157.319" style="fill:#D9D1F2;" width="17.265" height="39.611"/>
					<rect x="498.273" y="190.317" style="fill:#D9D1F2;" width="35.121" height="3.191"/>
					<rect x="498.273" y="182.073" style="fill:#D9D1F2;" width="35.121" height="3.191"/>
					<rect x="498.273" y="173.284" style="fill:#D9D1F2;" width="35.121" height="3.191"/>
					<path style="fill:#D9D1F2;" d="M524.077,264.437c-0.077-0.139-0.215-0.235-0.372-0.258c-0.158-0.027-0.317,0.026-0.432,0.137
						l-22.745,21.742l-25.901-28.839c-0.096-0.107-0.235-0.17-0.379-0.171c-0.001,0-0.002,0-0.003,0
						c-0.144,0-0.281,0.06-0.379,0.166l-19.159,20.828l-45.193-36.799l8.319-1.327c0.28-0.045,0.471-0.308,0.427-0.589
						c-0.046-0.281-0.304-0.469-0.589-0.427l-9.452,1.509c-0.01,0.002-0.017,0.011-0.027,0.013
						c-0.077,0.017-0.144,0.051-0.204,0.098c-0.017,0.014-0.033,0.026-0.048,0.042c-0.061,0.062-0.111,0.135-0.135,0.22
						c0,0-0.001,0.001-0.001,0.002c-0.001,0.003,0.001,0.006,0,0.009c-0.015,0.06-0.022,0.123-0.014,0.188l1.181,9.58
						c0.032,0.26,0.254,0.451,0.509,0.451c0.021,0,0.042-0.001,0.064-0.004c0.281-0.034,0.482-0.291,0.447-0.573l-1.024-8.311
						l45.467,37.022c0.208,0.171,0.517,0.15,0.703-0.05l19.104-20.767l25.878,28.813c0.093,0.103,0.224,0.165,0.363,0.171
						c0.135,0.001,0.273-0.047,0.374-0.142l22.648-21.65l16.638,29.823c0.094,0.169,0.269,0.264,0.449,0.264
						c0.085,0,0.171-0.021,0.25-0.065c0.248-0.138,0.337-0.451,0.199-0.699L524.077,264.437z"/>
					<rect x="500.671" y="223.07" style="fill:#D9D1F2;" width="0.685" height="37.882"/>
					<rect x="453.386" y="223.07" style="fill:#D9D1F2;" width="0.685" height="37.882"/>
					<rect x="556.034" y="131.832" style="fill:#D9D1F2;" width="58.396" height="5.14"/>
				</g>
				<path style="fill:#AC8FE5;" d="M394.831,121.709h251.042c4.924,0,8.917-3.992,8.917-8.917v-1.034
					c0-4.924-3.992-8.916-8.917-8.916H394.831c-4.924,0-8.917,3.992-8.917,8.916v1.034
					C385.914,117.717,389.906,121.709,394.831,121.709z"/>
				<path style="fill:#E0665C;" d="M484.406,105.77h71.892c3.311,0,5.996-2.684,5.996-5.996v-0.695c0-3.311-2.684-5.995-5.996-5.995
					h-71.892c-3.311,0-5.996,2.684-5.996,5.995v0.695C478.41,103.086,481.094,105.77,484.406,105.77z"/>
			</g>
		</g>
		
			<line style="fill:none;stroke:#221238;stroke-linecap:round;stroke-linejoin:round;stroke-miterlimit:10;" x1="55" y1="452.803" x2="696" y2="452.803"/>
		<g>
			<g>
				<g>
					<g>
						<path style="fill:#FFFFFF;" d="M189.835,438.751c2.05-1.125,3.792-6.576,5.243-13.96v-57.81h13.764v57.34
							c1.469,7.621,3.24,13.283,5.333,14.431c7.678,4.212,29.401,3.882,29.401,13.13h-41.571h-41.571
							C160.435,442.633,182.157,442.964,189.835,438.751z"/>
						<path style="fill:#9875BC;" d="M208.842,373.811c0,0-6.383,3.997-13.764,3.95V366.98h13.764V373.811z"/>
					</g>
					<g>
						<path style="fill:#FFFFFF;" d="M266.85,361.125c0,0-55.893,18.867-90.456,4.229c-34.562-14.638-23.177-62.131-17.322-77.094
							s48.469-19.829,63.757,1.959C238.118,312.006,267.931,331.849,266.85,361.125z"/>
						<path style="fill:#9875BC;" d="M169.802,317.458c-15.781-20.275,2.789-39.331,3.033-39.579
							c15.509-5.067,39.359-2.818,49.995,12.339c6.028,8.59,14.311,16.879,22.07,25.562
							C227.041,340.985,181.466,332.443,169.802,317.458z"/>
					</g>
				</g>
				<g>
					<g>
						<g>
							<path style="fill:#EAA373;" d="M221.419,250.448c0,0-0.542,7.619,4.18,11.889c4.722,4.27,5.024,27.664-3.803,24.204
								c-8.827-3.46-19.791-29.87-19.791-29.87s4.958-6.871,4.998-12.512S221.685,245.375,221.419,250.448z"/>
							<path style="fill:#CE8451;" d="M206.303,248.167c0.413-1.335,0.692-2.704,0.701-4.008c0.04-5.641,14.682,1.216,14.416,6.289
								C221.419,250.448,215.24,252.899,206.303,248.167z"/>
						</g>
						<path style="fill:#EA736A;" d="M197.958,240.195c-2.95-3.246-3.917-7.173-2.159-8.771c1.758-1.598,5.575-0.261,8.525,2.985
							c0.023,0.025,0.043,0.051,0.065,0.076c2.803,3.126,3.767,6.852,2.247,8.527c-0.051,0.056-0.097,0.117-0.154,0.168
							C204.725,244.778,200.908,243.442,197.958,240.195z"/>
						<path style="fill:#FABC8B;" d="M228.856,226.133c0,0-0.149,5.218,1.161,9.17c1.31,3.953-1.79,11.3-5.248,14.011
							c-3.458,2.711-12.237,0.229-15.755-2.171c-3.518-2.401-7.088-9.624-7.927-13.043c-0.839-3.42,1.56-18.178,11.72-18.574
							S228.818,217.289,228.856,226.133z"/>
						<path style="fill:#010200;" d="M206.303,223.526c0,0,15.714,5.367,14.25,1.464c0,0,9.996,7.23,9.77,3.131
							c0,0,8.04-3.369,4.136-12.077c-3.904-8.708-9.946-6.059-13.036-7.685c-3.09-1.627-13.112-5.815-20.49,0.203
							s-5.133,22.862-5.133,22.862l3.943-0.274c0,0,1.958,8.055,4.147,9.567c0,0-0.901-8.409-0.088-12.801
							C204.613,223.526,208.968,226.779,206.303,223.526z"/>
					</g>
					<g>
						<g>
							<path style="fill:#FABC8B;" d="M247.219,422.218l-1.409,14.626c0,0,1.521,13.486,13.039,4.645l5.469-28.06L247.219,422.218z"
								/>
							<path style="fill:#211A2D;" d="M273.178,451.881h-34.409c0,0,1.94-20.496,7.416-18.931c5.476,1.565,6.145,6.658,12.664,3.789
								c4.77-2.099,13.309,3.024,17.548,8.818C278.319,448.184,276.432,451.881,273.178,451.881z"/>
							<g>
								<path style="fill:#FFFFFF;" d="M269.841,438.951c0.265-0.011,0.505,0.172,0.531,0.441c0.025,0.269-0.173,0.506-0.441,0.531
									c-1.19,0.11-4.437,0.796-5.159,2.628c-0.075,0.193-0.259,0.31-0.454,0.31c-0.059,0-0.12-0.01-0.178-0.034
									c-0.252-0.098-0.374-0.381-0.275-0.632C264.951,439.432,269.641,438.969,269.841,438.951z"/>
								<path style="fill:#FFFFFF;" d="M261.081,440.07c1.086-2.764,5.777-3.226,5.976-3.244c0.261-0.016,0.505,0.173,0.531,0.441
									c0.025,0.269-0.173,0.506-0.441,0.531c-1.19,0.11-4.437,0.795-5.159,2.628c-0.075,0.192-0.259,0.31-0.454,0.31
									c-0.059,0-0.12-0.01-0.178-0.034C261.104,440.604,260.982,440.321,261.081,440.07z"/>
							</g>
							<polygon style="fill:#CE8451;" points="261.602,427.366 247.219,422.218 262.149,424.558 							"/>
						</g>
						<g>
							<path style="fill:#FABC8B;" d="M217.617,422.218l-1.409,14.626c0,0,1.521,13.486,13.039,4.645l5.469-28.06L217.617,422.218z"
								/>
							<path style="fill:#31273E;" d="M243.576,451.881h-34.409c0,0,1.94-20.496,7.416-18.931c5.476,1.565,6.144,6.658,12.664,3.789
								c4.77-2.099,13.309,3.024,17.548,8.818C248.717,448.184,246.83,451.881,243.576,451.881z"/>
							<g>
								<path style="fill:#FFFFFF;" d="M240.239,438.951c0.265-0.011,0.505,0.172,0.531,0.441c0.025,0.269-0.173,0.506-0.441,0.531
									c-1.19,0.11-4.437,0.796-5.159,2.628c-0.075,0.193-0.259,0.31-0.454,0.31c-0.059,0-0.12-0.01-0.178-0.034
									c-0.252-0.098-0.375-0.381-0.276-0.632C235.349,439.432,240.04,438.969,240.239,438.951z"/>
								<path style="fill:#FFFFFF;" d="M231.479,440.07c1.086-2.764,5.777-3.226,5.976-3.244c0.261-0.016,0.505,0.173,0.531,0.441
									c0.025,0.269-0.173,0.506-0.441,0.531c-1.19,0.11-4.437,0.795-5.159,2.628c-0.075,0.192-0.259,0.31-0.454,0.31
									c-0.059,0-0.12-0.01-0.178-0.034C231.503,440.604,231.38,440.321,231.479,440.07z"/>
							</g>
							<polygon style="fill:#CE8451;" points="232,427.366 217.617,422.218 232.547,424.558 							"/>
						</g>
					</g>
					<g>
						<path style="fill:#4E2F7F;" d="M180.542,329.246h68.312c0,0,18.367,3.578,23.008,13.012
							c4.641,9.434-5.012,84.019-5.012,84.019l-22.876-3.671l1.626-52.047l-6.831,54.974l-24.906-3.904
							c0,0,5.218-59.041,3.754-60.504c-1.464-1.464-14.386,0.081-30.244-6.506c-3.668-1.523-7.319-13.527-6.831-17.81
							C181.03,332.527,180.542,329.246,180.542,329.246z"/>
						<g>
							<path style="fill:#260D56;" d="M244.093,418.786l1.507-48.227c0,0,3.124-23.34-0.227-24.885
								c-3.351-1.545-29.165-11.06-29.165-11.06s27.39,6.506,31.359,11.06c3.42,3.924-1.72,58.188-3.209,73.138l11.018,1.531
								c2.393-23.436,6.576-67.948,5.448-70.336c-1.163-2.464-23.073-11.784-31.418-15.167c-0.125-0.05-0.185-0.192-0.134-0.317
								c0.051-0.126,0.195-0.187,0.317-0.134c1.232,0.499,30.195,12.27,31.676,15.411c1.443,3.056-4.895,65.602-5.405,70.611
								l11.274,1.566c0.133,0.019,0.227,0.142,0.209,0.275c-0.017,0.122-0.122,0.211-0.242,0.211c-0.01,0-0.022-0.001-0.033-0.002
								l-11.497-1.597c0,0-0.002,0-0.002,0c0,0,0,0-0.001,0l-11.259-1.564c-0.21,2.1-0.336,3.307-0.336,3.307l0.104-3.339
								l-0.025-0.003c-0.133-0.019-0.227-0.142-0.209-0.275C243.862,418.864,243.966,418.789,244.093,418.786z"/>
							<path style="fill:#260D56;" d="M188.872,336.446c0.123-0.059,0.267-0.007,0.325,0.115c0.032,0.067,3.09,6.462,5.44,8.72
								c2.487-4.051-1.195-10.116-1.234-10.178c-0.071-0.114-0.035-0.265,0.079-0.336c0.113-0.07,0.265-0.036,0.336,0.079
								c0.164,0.265,3.918,6.445,1.2,10.75c1.531,0.945,9.43,2.473,17.098,3.954c12.088,2.335,20.057,3.965,20.654,5.294
								c1.09,2.423-5.3,60.355-5.823,65.077l12.275,2.057c0.133,0.022,0.223,0.148,0.2,0.28c-0.019,0.119-0.123,0.204-0.24,0.204
								c-0.013,0-0.027-0.001-0.04-0.004l-12.489-2.093c0,0,0,0,0,0l-0.001,0l-12.517-2.097c-0.133-0.022-0.223-0.148-0.2-0.28
								c0.021-0.133,0.15-0.23,0.28-0.2l12.25,2.053c1.953-17.616,6.733-62.853,5.86-64.796c-0.538-1.197-11.497-3.314-20.302-5.015
								c-8.704-1.682-16.221-3.134-17.464-4.154c-0.002-0.001-0.004-0.001-0.006-0.002c-0.001-0.001-0.001-0.003-0.002-0.004
								c-0.005-0.004-0.014-0.008-0.018-0.012c-2.45-2.122-5.641-8.803-5.775-9.086C188.698,336.649,188.75,336.503,188.872,336.446
								z"/>
						</g>
					</g>
					<g>
						<path style="fill:#FABC8B;" d="M270.08,281.231c0,0-4.388-3.152-2.935-12.649c1.452-9.497,2.283-5.176,2.838-2.296
							c0.554,2.88,2.334,6.2,4.977,1.587c2.643-4.612,10.405-17.611,9.017-11.938c-1.388,5.673-4.23,9.589-4.23,9.589
							s10.355-15.2,9.042-9.697c-1.313,5.504-6.137,11.384-6.137,11.384s8.413-11.176,7.941-8.038
							c-0.472,3.137-4.732,10.874-4.732,10.874s6.312-6.035,4.77-1.849C289.088,272.382,278.97,288.194,270.08,281.231z"/>
						<path style="fill:#FC7B54;" d="M156.795,313.307c1.789-5.483,22.99-44.551,22.992-44.554l1.414-3.12l22.192-11.106
							c0,0,16.371,22.133,18.728,1.828c0,0,18.283,8.491,20.397,10.769c2.113,2.278,5.664,31.618,5.664,31.618l16.429-24.282
							l14.251,9.164l-16.59,31.488c0,0-9.84,15.11-13.093,15.761c-3.253,0.651-45.216,0.325-45.216,0.325l-24.072,8.783v-22.469
							c-0.434,0.008-0.855,0.003-1.301,0.024C157.486,318.512,156.027,315.662,156.795,313.307z"/>
						<path style="fill:#FFDBE2;" d="M203.019,255.849c0.111-0.071,0.263-0.039,0.337,0.075c4.272,6.72,10.415,11.094,14.977,10.622
							c4.502-0.461,5.264-8.36,5.271-8.44c0.012-0.133,0.12-0.239,0.265-0.221c0.134,0.012,0.234,0.131,0.221,0.265
							c-0.031,0.342-0.806,8.379-5.708,8.882c-0.171,0.017-0.346,0.021-0.52,0.026v50.477c0,0.134-0.11,0.244-0.244,0.244
							s-0.244-0.11-0.244-0.244v-50.484c-4.588-0.177-10.365-4.472-14.429-10.866C202.871,256.073,202.905,255.922,203.019,255.849z
							"/>
						<g>
							<path style="fill:#DB5B3E;" d="M186.153,273.865c0,0-4.635,27.569-1.952,28.788c2.684,1.22,18.948,5.774,18.948,5.774
								s-23.828-2.358-24.072-4.31C178.834,302.166,186.153,273.865,186.153,273.865z"/>
							<polygon style="fill:#DB5B3E;" points="195.762,317.536 193.611,317.536 197.642,307.824 							"/>
							<polygon style="fill:#DB5B3E;" points="238.498,317.536 232.464,317.536 234.716,274.841 							"/>
							<path style="fill:#DB5B3E;" d="M201.329,294.563c0.059-0.083,0.091-0.183,0.091-0.285v-11.299
								c0-0.27-0.218-0.488-0.488-0.488h-10.469c-0.27,0-0.488,0.218-0.488,0.488v11.299c0,0.105,0.033,0.207,0.096,0.292
								c0.103,0.137,2.551,3.376,5.859,3.376C197.898,297.946,199.714,296.808,201.329,294.563z M200.444,294.118
								c-1.395,1.893-2.913,2.851-4.513,2.851c-2.484,0-4.52-2.301-4.98-2.862v-10.641h9.493V294.118z"/>
						</g>
						<path style="fill:#FABC8B;" d="M203.149,308.427l-2.012,9.108h17.952C219.089,317.536,216.812,309.403,203.149,308.427z"/>
					</g>
				</g>
			</g>
			<path style="fill:#AF4945;" d="M412.134,451.881h-36.632c-4.312,0-7.807-3.84-7.807-8.575c0-4.736,3.495-8.575,7.807-8.575
				h28.825V334.686h-96.124h-98.32h-42.028v117.195h-25.271h-34.257h-2.375c-4.312,0-7.807-3.84-7.807-8.575V326.111
				c0-4.736,3.495-8.575,7.807-8.575h103.931h98.32h103.931c3.157,0,5.87,2.063,7.1,5.024h55.011v129.322h-59.529H412.134z"/>
			<g>
				<g>
					<g>
						<path style="fill:#FFFFFF;" d="M323.115,438.751c2.05-1.125,3.792-6.576,5.243-13.96v-57.81h13.764v57.34
							c1.47,7.621,3.24,13.283,5.333,14.431c7.678,4.212,29.401,3.882,29.401,13.13h-41.571h-41.571
							C293.714,442.633,315.437,442.964,323.115,438.751z"/>
						<path style="fill:#9875BC;" d="M342.121,373.811c0,0-6.383,3.997-13.764,3.95V366.98h13.764V373.811z"/>
					</g>
					<g>
						<path style="fill:#FFFFFF;" d="M400.129,361.125c0,0-55.893,18.867-90.456,4.229c-34.562-14.638-23.177-62.131-17.322-77.094
							c5.855-14.964,48.469-19.829,63.757,1.959C371.398,312.006,401.21,331.849,400.129,361.125z"/>
						<path style="fill:#9875BC;" d="M303.081,317.458c-15.781-20.275,2.789-39.331,3.033-39.579
							c15.509-5.067,39.359-2.818,49.995,12.339c6.028,8.59,14.311,16.879,22.07,25.562
							C360.32,340.985,314.745,332.443,303.081,317.458z"/>
					</g>
				</g>
				<g>
					<g>
						<g>
							<path style="fill:#EAA373;" d="M350.158,257.44c0,0-2.391,7.254,1.142,12.551c3.533,5.297-1.903,28.052-9.614,22.536
								c-7.711-5.516-11.875-33.806-11.875-33.806s6.49-5.447,7.909-10.907C339.14,242.353,351.658,252.587,350.158,257.44z"/>
							<path style="fill:#CE8451;" d="M336.06,251.527c0.727-1.194,1.332-2.452,1.661-3.714c1.42-5.46,13.937,4.774,12.437,9.627
								C350.158,257.44,343.566,258.303,336.06,251.527z"/>
						</g>
						<path style="fill:#E89997;" d="M329.921,241.755c-2.066-3.87-2.041-7.914,0.054-9.032c1.344-0.718,3.213-0.052,4.927,1.535
							c0.958,0.887,1.867,2.059,2.608,3.446c0.016,0.03,0.029,0.06,0.045,0.089c1.952,3.718,1.975,7.565,0.091,8.817
							c-0.063,0.042-0.123,0.09-0.19,0.126c-0.266,0.142-0.553,0.229-0.854,0.266C334.525,247.262,331.724,245.134,329.921,241.755z
							"/>
						<path style="fill:#FABC8B;" d="M363.322,235.686c0,0-1.422,5.022-1.12,9.175c0.302,4.153-4.502,10.518-8.519,12.299
							c-4.017,1.782-11.92-2.774-14.744-5.963c-2.823-3.189-4.516-11.066-4.492-14.587c0.024-3.521,5.964-17.243,15.911-15.139
							C360.306,223.575,365.451,227.102,363.322,235.686z"/>
					</g>
					<g>
						<path style="fill:#FFDBE2;" d="M332.786,255.812c0,0-15.134,2.196-18.061,5.611c-2.928,3.416-14.638,72.946-14.638,72.946
							h101.979l-6.831-24.152c0,0-17.322-3.416-20.006-5.123c-2.684-1.708-13.906-40.499-16.346-41.719
							c-2.44-1.22-9.246-3.655-9.246-3.655S345.189,273.855,332.786,255.812z"/>
						<g>
							<path style="fill:#FFB7C3;" d="M352.947,275.442c0,0-1.446,1.188-2.756-2.228c-1.31-3.416-1.069-6.424-1.069-6.424
								s-2.341,0.081-3.637-1.464c0,0-7.32,2.688-10.46-0.445c-3.14-3.133-2.246-9.068-2.246-9.068l0.019,0.013
								c5.912,8.595,10.012,9.872,12.688,8.861h0l0,0c2.082-0.787,3.301-2.954,3.832-4.15l0.237-0.257l0.135-0.543
								c0.517,0.186,6.856,2.467,9.196,3.637c0.951,0.476,3.239,6.668,5.833,14.141c-0.003,0.01-1.366,4.854-6.484,1.986
								C353.11,276.63,352.947,275.442,352.947,275.442z"/>
							<path style="fill:#FFB7C3;" d="M323.996,275.442c6.181,4.098,0.163,25.829,0.163,25.829
								c8.62-0.976,28.243,6.553,28.243,6.553l-30.723-4.204L323.996,275.442z"/>
							<path style="fill:#FFB7C3;" d="M352.401,279.501c0.755-5.18,4.612,37.709,4.612,37.709l-2.912,0.103
								C354.101,317.314,351.646,284.681,352.401,279.501z"/>
						</g>
						<g>
							<path style="fill:#FFFFFF;" d="M332.778,255.813l12.706,8.874C345.484,264.686,330.748,271.305,332.778,255.813z"/>
							<path style="fill:#FFFFFF;" d="M345.484,264.686l4.069-4.407C352.259,269.546,345.484,264.686,345.484,264.686z"/>
						</g>
						<g>
							<path style="fill:#FABC8B;" d="M351.282,307.671l-1.594,9.865h16.921C366.609,317.536,365.96,309.679,351.282,307.671z"/>
							<path style="fill:#FABC8B;" d="M395.235,310.217l0.244,7.319h13.998C409.477,317.536,410.036,311.355,395.235,310.217z"/>
						</g>
					</g>
					<g>
						<path style="fill:#FABC8B;" d="M348.851,444.497c0,0-3.406-4.292-3.237-7.525c0.169-3.233,8.022-20.853,8.022-20.853
							l-12.271-3.192l-4.012,12.838c0,0-5.104,4.118-2.397,9.864C337.662,441.375,347.007,451.205,348.851,444.497z"/>
						<path style="fill:#231527;" d="M337.352,425.765c0,0-3.562,1.592-4.058,3.982c-0.496,2.39,0.922,5.655,0.744,8.757
							s-1.332,9.476-1.332,9.476l1.651,0.43l2.584-7.513c0,0-0.107,8.158,4.375,9.324c4.482,1.166,12.842,4.852,11.819,0.556
							s-4.286-6.278-4.286-6.278s-6.228,2.158-8.407-4.957C338.264,432.425,335.436,428.289,337.352,425.765z"/>
						<polygon style="fill:#CE8451;" points="338.146,423.224 347.838,429.949 348.689,426.892 						"/>
					</g>
					<g>
						<path style="fill:#FABC8B;" d="M394.326,444.443c0,0-4.377-3.296-5.027-6.467s2.514-22.201,2.514-22.201h-12.679
							l-0.651,13.434c0,0-3.903,5.27,0.163,10.15C382.711,444.237,394.23,451.398,394.326,444.443z"/>
						<path style="fill:#231527;" d="M378.482,429.208c0,0-3.047,2.438-2.925,4.875c0.122,2.438,2.316,5.241,2.925,8.288
							c0.609,3.047,1.097,9.506,1.097,9.506h1.706l0.609-7.922c0,0,1.95,7.922,6.581,7.922c4.631,0,13.65,1.463,11.578-2.438
							c-2.072-3.9-5.728-4.997-5.728-4.997s-5.484,3.656-9.384-2.681C381.042,435.424,377.263,432.134,378.482,429.208z"/>
						<polygon style="fill:#CE8451;" points="378.482,429.208 389.579,431.554 389.882,428.961 						"/>
					</g>
					<g>
						<path style="fill:#010000;" d="M319.279,253.778c5.855-8.62,8.383-14.749,9.108-22.283c0.675-7.018,3.865-12.478,8.434-15.677
							c-1.094-0.585-1.874-1.393-2.203-2.412c-1.108-3.439,3.258-7.923,9.751-10.014c6.493-2.091,12.655-0.998,13.763,2.441
							c0.8,2.485-1.265,5.51-4.917,7.789c0.784,0.245,1.572,0.535,2.363,0.877c13.174,5.693,9.892,25.852,8.916,31.752
							c-0.976,5.9,0.193,17.322,1.073,23.565c0.63,4.472,0.214,7.237-2.039,8.928c-1.703,1.327-3.583,0.741-5.248-0.468
							c-1.931-1.058-3.473-3.052-4.692-5.336c-0.006-0.009-0.012-0.019-0.012-0.019s-0.426,3.383-2.5,0.455
							c-2.074-2.928-1.464-13.052-1.464-13.052l-0.06-0.045c0.234-1.697,0.605-2.84,0.605-2.84c0.001-0.003,0.001-0.006,0.002-0.009
							c1.319,0.213,2.538,0.166,3.522-0.27c4.017-1.782,8.821-8.146,8.519-12.299c-0.233-3.212,0.562-6.934,0.936-8.46l0,0
							c0,0-3.262-1.534-2.871-6.206c0,0-9.439,6.593-11.144,2.239c0,0-9.674,3.926-9.024-0.376l-3.435,1.454
							c0,0,0.32,12.859-0.603,11.968c-0.92-0.889-2.739-12.329-2.749-12.392c-1.213-0.683-2.401-0.864-3.336-0.366
							c-2.096,1.119-2.12,5.163-0.054,9.032c1.803,3.379,4.604,5.507,6.68,5.248c0.247,0.637,0.52,1.234,0.804,1.803
							c-0.073,0.196-0.157,0.391-0.241,0.587c-0.047,0.112-0.09,0.224-0.141,0.336c-0.126,0.275-0.263,0.549-0.408,0.82
							c-0.016,0.029-0.03,0.059-0.045,0.089c-0.162,0.3-0.332,0.598-0.511,0.891h0c-0.979,1.607-2.188,3.087-3.282,4.285
							c-0.158,0.023-11.497,1.682-16.362,4.349C316.641,258.578,317.435,256.493,319.279,253.778z"/>
						<path style="fill:#FFFFFF;" d="M334.447,249.305c0,0.831,0.361,1.504,0.807,1.504s0.807-0.674,0.807-1.504
							s-0.361-1.505-0.807-1.505S334.447,248.475,334.447,249.305z"/>
					</g>
					<g>
						<path style="fill:#31273E;" d="M306.609,334.73c0,0,1.081,25.419,15.069,25.744c13.988,0.325,29.398,3.308,29.398,3.308
							l-15.823,58.436l19.382,6.743L373.8,375.45l2.242,53.511h17.891c0,0,11.06-73.691,8.132-76.944
							c-2.928-3.253-38.269-17.286-38.269-17.286H306.609z"/>
						<path style="fill:#231527;" d="M380.109,350.472c-2.109-1.688-28.953-12.218-36.186-15.04l-37.313-0.701h57.188l2.812,1.128
							l-21.75-0.409c8.876,2.368,36.456,10.037,38.909,14.535c2.928,5.367-6.384,21.644-6.974,27.778
							c-0.589,6.134-0.752,51.199-0.752,51.199L373.8,375.45C373.8,375.45,382.549,352.423,380.109,350.472z"/>
					</g>
				</g>
			</g>
			<path style="fill:#E0665C;" d="M168.587,317.536h103.931h98.32h103.931c4.312,0,7.807,3.84,7.807,8.575v117.195
				c0,4.736-3.495,8.575-7.807,8.575h-36.632c-4.312,0-7.807-3.84-7.807-8.575c0-4.736,3.495-8.575,7.807-8.575h28.825V334.686
				h-96.124h-98.32h-96.124v100.045h28.825c4.312,0,7.807,3.84,7.807,8.575c0,4.736-3.495,8.575-7.807,8.575h-36.632
				c-4.312,0-7.807-3.84-7.807-8.575V326.111C160.78,321.375,164.275,317.536,168.587,317.536z"/>
			<g>
				<g>
					<path style="fill:#5B3B6D;" d="M235.663,313.928l14.553-34.34c0.217-0.511,0.718-0.843,1.273-0.843h51.459
						c0.99,0,1.659,1.01,1.273,1.922l-15.268,36.026c-0.217,0.511-0.718,0.843-1.273,0.843h-48.423h-5.123H210.55
						c-0.764,0-1.383-0.619-1.383-1.383l0,0c0-0.764,0.619-1.383,1.383-1.383h23.84
						C234.945,314.771,235.446,314.439,235.663,313.928z"/>
					<path style="fill:#1E1223;" d="M238.498,317.536h51.459c0.555,0,1.056-0.332,1.273-0.843l15.267-36.026
						c0.386-0.912-0.283-1.922-1.273-1.922h-51.459c-0.555,0-1.056,0.332-1.273,0.843l-15.268,36.026
						C236.839,316.525,237.508,317.536,238.498,317.536z"/>
					<path style="fill:#FFFFFF;" d="M266.333,307.101c1.973,2.658,6.613,2.556,10.363-0.229c3.751-2.784,5.192-7.196,3.219-9.854
						c-1.973-2.658-6.613-2.555-10.363,0.229C265.801,300.031,264.36,304.443,266.333,307.101z"/>
				</g>
				<g>
					<path style="fill:#7255AA;" d="M372.1,313.928l14.553-34.34c0.217-0.511,0.718-0.843,1.273-0.843h51.459
						c0.99,0,1.659,1.01,1.273,1.922l-15.268,36.026c-0.217,0.511-0.718,0.843-1.273,0.843h-48.423h-5.123h-23.584
						c-0.763,0-1.382-0.619-1.382-1.383l0,0c0-0.764,0.619-1.383,1.382-1.383h23.84C371.383,314.771,371.884,314.439,372.1,313.928z
						"/>
					<path style="fill:#4E2F7F;" d="M374.936,317.536h51.459c0.555,0,1.056-0.332,1.273-0.843l15.268-36.026
						c0.386-0.912-0.283-1.922-1.273-1.922h-51.459c-0.555,0-1.056,0.332-1.273,0.843l-15.268,36.026
						C373.277,316.525,373.946,317.536,374.936,317.536z"/>
					<path style="fill:#FFFFFF;" d="M401.713,307.101c1.973,2.658,6.613,2.556,10.363-0.229c3.751-2.784,5.192-7.196,3.219-9.854
						c-1.973-2.658-6.613-2.555-10.363,0.229C401.181,300.031,399.74,304.443,401.713,307.101z"/>
				</g>
			</g>
			<g>
				<g>
					<g>
						<path style="fill:#FABC8B;" d="M609.395,444.443c0,0,4.377-3.296,5.027-6.467c0.651-3.172-2.514-22.201-2.514-22.201h12.679
							l0.651,13.434c0,0,3.903,5.27-0.163,10.15C621.009,444.237,609.49,451.398,609.395,444.443z"/>
						<path style="fill:#4E2F7F;" d="M625.238,429.208c0,0,3.047,2.438,2.925,4.875s-2.316,5.241-2.925,8.288
							s-1.097,9.506-1.097,9.506h-1.706l-0.609-7.922c0,0-1.95,7.922-6.581,7.922s-13.65,1.463-11.578-2.438
							c2.072-3.9,5.728-4.997,5.728-4.997s5.484,3.656,9.384-2.681C622.679,435.424,626.457,432.134,625.238,429.208z"/>
						<polygon style="fill:#CE8451;" points="625.238,429.208 613.421,425.772 625.129,426.961 						"/>
					</g>
					<g>
						<path style="fill:#FABC8B;" d="M638.997,444.443c0,0,4.377-3.296,5.028-6.467c0.651-3.172-2.514-22.201-2.514-22.201h12.679
							l0.651,13.434c0,0,3.903,5.27-0.163,10.15C650.612,444.237,639.093,451.398,638.997,444.443z"/>
						<path style="fill:#4E2F7F;" d="M654.841,429.208c0,0,3.047,2.438,2.925,4.875c-0.122,2.438-2.316,5.241-2.925,8.288
							c-0.609,3.047-1.097,9.506-1.097,9.506h-1.706l-0.609-7.922c0,0-1.95,7.922-6.581,7.922c-4.631,0-13.65,1.463-11.578-2.438
							c2.072-3.9,5.728-4.997,5.728-4.997s5.484,3.656,9.384-2.681C652.282,435.424,656.06,432.134,654.841,429.208z"/>
						<polygon style="fill:#CE8451;" points="643.213,427.178 654.789,428.135 654.691,426.107 						"/>
					</g>
				</g>
				<g>
					<polygon style="fill:#4E2F7F;" points="663.267,290.058 658.745,369.257 666.064,425.045 632.965,428.135 634.431,366.816 
						635.151,313.876 633.324,359.843 630.277,427.484 599.866,424.395 609.463,368.037 607.061,290.058 					"/>
				</g>
				<g>
					<path style="fill:#E89997;" d="M656.346,168.522c1.933,1.605,1.098,5.799-1.866,9.369c-2.589,3.119-5.947,4.728-8.043,4.014
						c-0.303-0.103-0.579-0.254-0.823-0.457c-0.062-0.052-0.114-0.113-0.17-0.171c-1.685-1.698-0.843-5.679,1.971-9.115
						c0.023-0.027,0.043-0.056,0.065-0.083c1.063-1.28,2.255-2.3,3.436-3.016C653.028,167.785,655.106,167.493,656.346,168.522z"/>
					<g>
						<path style="fill:#EAA373;" d="M630.178,189.834c0,0,0.933,8.024-3.854,12.759c-4.787,4.735-3.998,29.466,5.164,25.393
							c9.162-4.073,19.495-32.495,19.495-32.495s-5.564-7.024-5.873-12.983C644.802,176.549,629.657,184.487,630.178,189.834z"/>
						<path style="fill:#CE8451;" d="M646.041,186.709c-0.5-1.391-0.859-2.824-0.93-4.201c-0.309-5.958-15.454,1.98-14.933,7.327
							C630.178,189.834,636.823,192.131,646.041,186.709z"/>
					</g>
					<path style="fill:#FABC8B;" d="M621.17,164.497c0,0,0.404,5.505-0.792,9.744c-1.197,4.238,2.426,11.854,6.208,14.554
						c3.782,2.701,12.939-0.337,16.543-3.04c3.603-2.703,7.033-10.503,7.757-14.156c0.724-3.653-2.509-19.132-13.262-19.07
						C626.87,152.592,620.791,155.15,621.17,164.497z"/>
					<path style="fill:none;" d="M620.378,174.24c0.773-2.737,0.877-5.995,0.854-7.964h0c0,0,2.226-1.341,3.194-6.345
						c0,0,14.313,7.319,12.036,2.928c0,0,10.735,7.807,10.247,3.09l4.207,3.115l0,0l0,0.001c0.1,1.07,0.086,1.953-0.029,2.534
						c-0.581,2.929-2.903,8.521-5.658,12.016c-0.002-0.011-0.005-0.023-0.006-0.034c-0.053-0.36-0.093-0.719-0.111-1.074
						c-0.174-3.352-5.042-2.306-9.175,0.202c-0.459,0.279-0.909,0.575-1.343,0.886c-1.301,0.932-2.454,1.991-3.256,3.067
						c-0.401,0.538-0.715,1.08-0.917,1.614c-0.067,0.178-0.122,0.355-0.163,0.53s-0.069,0.349-0.082,0.521
						c-0.013,0.169-0.012,0.337,0.004,0.502c-1.412-0.06-2.665-0.371-3.592-1.033C622.804,186.094,619.181,178.479,620.378,174.24z"
						/>
					<path style="fill:#010000;" d="M616.456,167.897c-0.325-12.69,6.343-26.02,20.752-26.02c14.409,0,17.958,10.735,20.179,22.283
						c2.221,11.548,11.441,21.192,11.441,21.192c-3.404,6.401-8.88,8.064-12.081,8.471c-4.81-2.134-9.274-3.952-9.327-3.974
						c-0.507-0.989-0.989-2.05-1.38-3.14h0c-0.123-0.342-0.237-0.686-0.34-1.032c-0.01-0.033-0.018-0.067-0.028-0.1
						c-0.092-0.312-0.176-0.625-0.248-0.938c-0.028-0.123-0.048-0.246-0.073-0.37c-0.045-0.218-0.09-0.437-0.124-0.654
						c0.415-0.527,0.818-1.105,1.209-1.71c2.096,0.714,5.453-0.895,8.043-4.014c2.963-3.57,3.799-7.764,1.866-9.369
						c-0.995-0.826-2.531-0.79-4.189-0.087c-0.024,0.152-1.727,11.018-4.513,11.684c0,0,3.276-9.104,1.059-12.694l-1.994-1.476
						c0.488,4.717-10.247-3.09-10.247-3.09c2.277,4.392-12.036-2.928-12.036-2.928c-0.968,5.004-3.194,6.345-3.194,6.345h0
						c0.023,1.97-0.082,5.227-0.854,7.964c-1.197,4.238,2.426,11.854,6.208,14.554c0.927,0.662,2.18,0.973,3.592,1.033
						c0,0.002,0,0.004,0,0.006c0,0,0.056,0.491,0.07,1.296c-0.003,0.001-9.473,2.833-15.691,5.263
						c-5.742-2.956-6.395-7.674-6.395-7.674C612.553,187.906,616.782,180.587,616.456,167.897z"/>
				</g>
				<g>
					<g>
						<path style="fill:#FABC8B;" d="M573.582,232.724c0,0-4.253-6.509-6.353-7.931c-2.1-1.422-4.148-0.639-6.257-1.595
							c-2.109-0.956-3.958-2.498-8.187-2.176c-4.229,0.323-5.823,0.851-8.133-0.125c-2.31-0.976-3.019-0.446-2.297,0.748
							c0.722,1.194,3.68,2.399,3.68,2.399s-4.599-1.809-4.098-0.426c0.556,1.535,4.603,4.876,4.603,4.876s-1.654-0.603-3.822-1.685
							c-2.168-1.082-4.684-2.543-4.163-0.743c0.52,1.798,1.721,1.936,4.349,3.337c2.628,1.401,5.73,2.439,7.337,2.019
							c0,0,2.486,1.507,3.432,0.749c0,0,2.174,0.771,3.213,0.046c0,0,1.644,0.063,3.095-1.089c0,0,1.983-0.598,2.72-0.181
							c0.737,0.418,4.902,7.469,4.902,7.469L573.582,232.724z"/>
						<g>
							<g>
								<path style="fill:#E0665C;" d="M546.601,228.417l3.701,2.928c0.043,0.034,0.05,0.095,0.016,0.138
									c-0.027,0.034-0.071,0.045-0.11,0.032c-0.01-0.003-0.019-0.009-0.028-0.016l-3.701-2.928
									c-0.043-0.034-0.05-0.095-0.016-0.138C546.497,228.391,546.558,228.383,546.601,228.417z"/>
								<path style="fill:#E0665C;" d="M545.839,223.886c0.957-0.53,2.439-0.259,3.797,0.686c0.383-0.489,0.852-0.74,1.394-0.741
									c0.876-0.002,2.416,0.668,4.773,3.871c0.693,0.942,2.226,1.193,2.241,1.196c0.052,0.009,0.09,0.059,0.082,0.112
									c-0.008,0.053-0.059,0.09-0.112,0.082c-0.03-0.005-0.365-0.059-0.791-0.211c-0.518-0.184-1.171-0.51-1.578-1.063
									c-2.308-3.137-3.783-3.793-4.614-3.791c-0.477,0.001-0.892,0.225-1.236,0.66c0.999,0.759,2.275,2.485,3.214,3.756
									c0.432,0.585,0.806,1.091,1.061,1.382c0.823,0.937,2.85,2.297,2.87,2.311c0.045,0.03,0.057,0.091,0.027,0.136
									c-0.03,0.045-0.091,0.056-0.136,0.027c-0.084-0.056-2.069-1.387-2.909-2.344c-0.261-0.297-0.636-0.806-1.072-1.395
									c-0.957-1.296-2.268-3.07-3.252-3.776c-1.298-0.93-2.77-1.221-3.665-0.726c-0.014,0.008-0.023,0.018-0.026,0.044
									c-0.083,0.783,4.637,5.21,7.83,7.995c0.041,0.036,0.045,0.098,0.009,0.139c-0.027,0.031-0.07,0.041-0.107,0.028
									c-0.011-0.004-0.022-0.01-0.032-0.019c-0.821-0.716-8.017-7.028-7.896-8.163
									C545.722,223.994,545.766,223.927,545.839,223.886z"/>
								<path style="fill:#E0665C;" d="M562.426,230.746c2.049,0.406,5.886-1.578,5.925-1.598c0.048-0.025,0.107-0.006,0.132,0.042
									c0.025,0.048,0.007,0.107-0.042,0.132c-0.16,0.083-3.938,2.036-6.054,1.617c-0.005-0.001-0.009-0.002-0.014-0.004
									c-0.045-0.016-0.073-0.063-0.063-0.112C562.321,230.77,562.373,230.736,562.426,230.746z"/>
								<path style="fill:#E0665C;" d="M557.587,228.186c-0.021,0.047-0.074,0.069-0.122,0.052
									c-0.003-0.001-0.005-0.002-0.007-0.003c-0.049-0.022-0.072-0.08-0.049-0.13c0.313-0.699,1.131-0.711,1.371-0.699
									c0.851-1.478,3.743-3.061,3.867-3.129c0.048-0.026,0.108-0.008,0.133,0.039c0.026,0.048,0.008,0.107-0.039,0.133
									c-0.03,0.017-3.038,1.663-3.819,3.105c-0.019,0.035-0.058,0.055-0.097,0.051
									C558.814,227.606,557.89,227.509,557.587,228.186z"/>
							</g>
						</g>
					</g>
					<g>
						<path style="fill:#F2E7C2;" d="M647.417,189.847c0,0,16.057,6.533,20.174,9.416c4.118,2.882,14.465,63.163,14.465,66.251
							c0,3.088-7.053,12.191-10.759,11.161c-3.706-1.029-8.029-1.486-8.029-1.486l1.773,12.803c0.151,1.092-0.697,2.065-1.799,2.065
							h-57.112c-1.054,0-1.887-0.894-1.812-1.945l2.332-32.718c0,0-7.181,15.841-11.917,13.782
							c-4.735-2.059-37.289-34.708-37.289-34.708l12.888-10.203l23.68,16.064c0,0,13.05-39.214,15.52-41.479
							c2.471-2.265,20.717-7.721,20.717-7.721s1.004,15.751,1.519,16.883C632.282,209.145,647.417,189.847,647.417,189.847z"/>
						<g>
							<polygon style="fill:#E0CB96;" points="661.062,245.687 661.022,208.013 665.576,248.736 669.967,256.665 644.58,237.908 
															"/>
							<polygon style="fill:#E0CB96;" points="612.065,206.286 606.649,255.394 602.446,263.089 							"/>
							<polygon style="fill:#E0CB96;" points="663.267,275.19 664.59,284.74 660.208,275.573 638.495,252.152 626.232,248.411 
								639.963,250.456 							"/>
							<path style="fill:#E0CB96;" d="M647.421,189.849c0,0,5.065,28.265-15.654,18.164
								C631.767,208.013,645.938,196.915,647.421,189.849z"/>
							<path style="fill:#E0CB96;" d="M631.767,208.013c0,0-12.206,3.337-1.519-16.883
								C630.248,191.13,628.129,204.211,631.767,208.013z"/>
						</g>
						<g>
							<path style="fill:#FFFFFF;" d="M631.767,208.013l15.654-18.164C652.829,213.401,631.767,208.013,631.767,208.013z"/>
							<path style="fill:#FFFFFF;" d="M630.248,191.13l1.519,16.883C631.767,208.013,617.691,207.853,630.248,191.13z"/>
						</g>
					</g>
					<path style="fill:#FABC8B;" d="M629.308,238.326c-1.063-0.368-4.802-1.792-8.482-4.79c-4.346-3.54,9.121,1.918,13.814,3.918
						c4.694,2.001,4.134-1.571,2.891-4.096c-1.243-2.526-3.108-6.314,3.502,0.115c1.631,1.586,2.762,3.081,3.547,4.435
						l-4.617,12.547c-6.122,1.263-14.687-2.112-17.132-3.68c-3.604-2.311,4.722-1.345,4.722-1.345s-7.74-3.456-9.917-5.585
						c-1.744-1.706,6.192,0.32,9.418,1.193c-2.247-0.667-6.892-2.259-9.973-4.799C613.221,233.061,627.082,237.587,629.308,238.326z
						"/>
				</g>
				<g>
					<path style="fill:#260D56;" d="M657.756,292.885c0,0.01,0.004,0.019,0.003,0.03c-1.095,9.362,4.584,13.166,4.827,13.323
						c0.226,0.147,0.291,0.449,0.144,0.675c-0.093,0.144-0.25,0.223-0.41,0.223c-0.09,0-0.181-0.025-0.263-0.077
						c-0.263-0.169-6.422-4.259-5.269-14.227l-49.726-2.773h56.18l-0.152,3.124L657.756,292.885z"/>
					<polygon style="fill:#260D56;" points="658.745,369.257 666.064,425.045 654.353,368.525 660.653,335.845 					"/>
				</g>
			</g>
			<g>
				<g>
					<path style="fill:#8D63A8;" d="M168.308,310.5h-33.516c-1.943,0-3.518,1.575-3.518,3.518l0,0c0,1.943,1.575,3.518,3.518,3.518
						h33.516c1.943,0,3.518-1.575,3.518-3.518l0,0C171.825,312.075,170.25,310.5,168.308,310.5z"/>
					<rect x="111.941" y="310.5" style="fill:#5B3B6D;" width="40.551" height="7.036"/>
					<rect x="111.836" y="312.68" style="fill:#EFEAF4;" width="56.83" height="3.32"/>
					<rect x="111.836" y="312.68" style="fill:#BFB3CE;" width="40.656" height="3.32"/>
				</g>
				<g>
					<path style="fill:#FFDBE2;" d="M172.474,303.62h-33.515c-1.943,0-3.518,1.575-3.518,3.518l0,0c0,1.943,1.575,3.518,3.518,3.518
						h33.515c1.943,0,3.518-1.575,3.518-3.518l0,0C175.992,305.195,174.417,303.62,172.474,303.62z"/>
					<rect x="116.108" y="303.62" style="fill:#FFB7C3;" width="40.551" height="7.036"/>
					<rect x="116.003" y="305.8" style="fill:#EFEAF4;" width="56.83" height="3.32"/>
					<rect x="116.003" y="305.8" style="fill:#BFB3CE;" width="40.656" height="3.32"/>
				</g>
			</g>
		</g>
		<g>
			<path style="fill:#EFEAF4;" d="M85.84,302.563c0,2.55-2.067,4.617-4.618,4.617s-4.618-2.067-4.618-4.617s2.067-4.617,4.618-4.617
				S85.84,300.013,85.84,302.563z"/>
			<circle style="fill:none;stroke:#EFEAF4;stroke-miterlimit:10;" cx="99.363" cy="137.381" r="6.667"/>
			
				<ellipse transform="matrix(0.2308 -0.973 0.973 0.2308 58.8342 836.8393)" style="fill:none;stroke:#EFEAF4;stroke-miterlimit:10;" cx="558.681" cy="381.21" rx="10.29" ry="10.29"/>
			<circle style="fill:#EFEAF4;" cx="439.773" cy="87.773" r="3.273"/>
			<circle style="fill:#EFEAF4;" cx="346.637" cy="59.531" r="5.531"/>
			<path style="fill:#EFEAF4;" d="M679.48,147.203c0,2.941-2.384,5.326-5.326,5.326c-2.941,0-5.326-2.384-5.326-5.326
				c0-2.941,2.384-5.326,5.326-5.326C677.096,141.877,679.48,144.262,679.48,147.203z"/>
			<path style="fill:#EFEAF4;" d="M690.835,359.39c0,2.424-1.965,4.39-4.39,4.39c-2.424,0-4.39-1.965-4.39-4.39
				c0-2.424,1.965-4.39,4.39-4.39C688.87,355,690.835,356.965,690.835,359.39z"/>
		</g>
		<g>
			<g>
				<path style="fill:#4E2F7F;" d="M116.271,387.64c-0.464-0.302-1.083-0.168-1.383,0.295c-5.301,8.174-7.869,15.305-9.087,20.743
					c-2.473-9.704-8.324-18.915-8.625-19.385c-0.298-0.465-0.917-0.602-1.381-0.302c-0.465,0.298-0.601,0.917-0.302,1.382
					c0.087,0.135,8.649,13.609,9.35,24.686c-0.201,2.878,0.028,4.565,0.056,4.755c0.073,0.496,0.5,0.852,0.988,0.852
					c0.048,0,0.097-0.003,0.146-0.011c0.546-0.079,0.924-0.587,0.846-1.133c-0.019-0.127-1.701-12.936,9.689-30.5
					C116.866,388.56,116.734,387.94,116.271,387.64z"/>
				<g>
					<path style="fill:#9278D1;" d="M115.705,376.016c-9.877-8.727-13.648-5.958-13.336-14.932
						c0.312-8.973-4.761-15.915-9.673-17.205c-4.912-1.29-10.663-1.059-12.94-10.942c-2.277-9.883-11.165-10.948-15.289-8.885
						c-4.124,2.063-8.603,9.814-2.059,17.563c6.543,7.749,2.909,12.212,0.995,16.917s0.599,12.927,7.967,18.059
						s2.891,6.49,3.951,19.627c1.06,13.137,28.483,6.473,28.483,6.473S125.582,384.743,115.705,376.016z"/>
					<polygon style="fill:#4E2F7F;" points="101.788,370.84 93.217,381.528 88.068,371.236 84.396,363.895 89.909,350.292 
						83.543,362.188 77.781,350.67 77.781,350.67 66.01,327.139 76.753,349.935 76.753,349.935 66.656,344.323 77.162,350.805 
						86.863,371.392 69.006,366.437 88.144,374.109 97.632,394.786 81.312,391.038 99.193,397.558 102.03,403.578 103.803,402.691 
						94.284,383.661 94.284,383.661 					"/>
				</g>
				<g>
					<path style="fill:#AC8FE5;" d="M97.748,371.334c9.877-8.727,13.648-5.959,13.336-14.932
						c-0.312-8.973,4.761-15.915,9.673-17.205c4.912-1.29,10.663-1.059,12.94-10.942c2.277-9.883,11.165-10.948,15.289-8.885
						c4.124,2.063,8.603,9.814,2.06,17.563c-6.543,7.749-2.909,12.212-0.995,16.917c1.913,4.705-0.599,12.926-7.967,18.059
						c-7.367,5.132-2.891,6.49-3.951,19.627c-1.06,13.137-28.483,6.473-28.483,6.473S87.871,380.06,97.748,371.334z"/>
					<polygon style="fill:#4E2F7F;" points="111.665,366.157 120.236,376.845 125.384,366.553 129.057,359.212 123.544,345.609 
						129.91,357.505 135.672,345.987 135.672,345.987 147.443,322.456 136.701,345.253 136.701,345.253 146.797,339.64 
						136.291,346.122 126.59,366.709 144.447,361.754 125.309,369.427 115.821,390.104 132.141,386.356 114.26,392.875 
						111.423,398.895 109.65,398.009 119.169,378.978 119.169,378.978 					"/>
				</g>
			</g>
			<g>
				<path style="fill:#FFFFFF;" d="M127.613,435.066c0-5.128-2.86-9.712-7.355-12.796c-0.057-2.228-1.872-4.019-4.114-4.019H97.31
					c-2.242,0-4.057,1.791-4.114,4.02c-4.496,3.084-7.355,7.668-7.355,12.796s2.86,9.712,7.355,12.796
					c0.057,2.228,1.872,4.02,4.114,4.02h18.834c2.242,0,4.057-1.791,4.114-4.019C124.753,444.778,127.613,440.194,127.613,435.066z"
					/>
				<g>
					<path style="fill:#9875BC;" d="M93.195,422.77h27.063c0.276,0,0.5-0.224,0.5-0.5c0-0.276-0.224-0.5-0.5-0.5H93.195
						c-0.276,0-0.5,0.224-0.5,0.5C92.695,422.546,92.919,422.77,93.195,422.77z"/>
					<path style="fill:#9875BC;" d="M120.258,447.362H93.195c-0.276,0-0.5,0.224-0.5,0.5s0.224,0.5,0.5,0.5h27.063
						c0.276,0,0.5-0.224,0.5-0.5S120.534,447.362,120.258,447.362z"/>
				</g>
			</g>
		</g>
	</g>
</g>
</svg>
